<?xml version="1.0" encoding="UTF-8"?>
<!DOCTYPE svg PUBLIC "-//W3C//DTD SVG 1.1//EN" "http://www.w3.org/Graphics/SVG/1.1/DTD/svg11.dtd">
<!-- Creator: CorelDRAW X7 -->
<svg xmlns="http://www.w3.org/2000/svg" xml:space="preserve" width="165.87mm" height="47.738mm" version="1.1" style="shape-rendering:geometricPrecision; text-rendering:geometricPrecision; image-rendering:optimizeQuality; fill-rule:evenodd; clip-rule:evenodd"
viewBox="0 0 16587 4774"
 xmlns:xlink="http://www.w3.org/1999/xlink">
 <defs>
  <style type="text/css">
   <![CDATA[
    .fil0 {fill:#2B2A29;fill-rule:nonzero}
    .fil1 {fill:url(#id0)}
   ]]>
  </style>
  <linearGradient id="id0" gradientUnits="userSpaceOnUse" x1="-92.53" y1="2612.06" x2="6132.41" y2="2161.74">
   <stop offset="0" style="stop-opacity:1; stop-color:#1655A3"/>
   <stop offset="1" style="stop-opacity:1; stop-color:#55C6CF"/>
  </linearGradient>
 </defs>
 <g id="Layer_x0020_1">
  <metadata id="CorelCorpID_0Corel-Layer"/>
  <g id="_1617598472576">
   <path class="fil0" d="M7776 3440l151 -1142c3,-21 5,-43 6,-66 2,-23 2,-57 2,-101 0,-130 -31,-230 -94,-299 -63,-69 -154,-104 -274,-104 -187,0 -333,60 -440,181 -106,121 -175,307 -206,556l-126 975 -451 0 262 -1986 433 0 -33 239c115,-105 233,-182 355,-233 122,-50 252,-75 391,-75 203,0 362,54 476,160 113,107 171,257 171,449 0,50 -3,106 -9,171 -6,65 -14,141 -25,227l-138 1048 -451 0z"/>
   <path id="1" class="fil0" d="M9287 2510c0,190 44,338 132,444 88,107 210,160 366,160 180,0 323,-73 427,-216 104,-144 157,-343 157,-595 0,-172 -47,-309 -141,-409 -92,-102 -219,-153 -378,-153 -172,0 -308,70 -410,208 -102,138 -153,325 -153,561zm1385 930l-449 0 33 -218c-78,99 -168,173 -270,222 -102,48 -219,73 -352,73 -260,0 -460,-82 -602,-246 -142,-165 -212,-397 -212,-698 0,-356 86,-643 259,-861 173,-218 400,-327 681,-327 132,0 255,28 369,83 114,55 219,139 315,253l40 -267 450 0 -262 1986z"/>
   <path id="2" class="fil0" d="M11749 2510c0,190 44,338 132,444 88,107 210,160 367,160 180,0 322,-73 426,-216 105,-144 158,-343 158,-595 0,-172 -48,-309 -141,-409 -93,-102 -220,-153 -378,-153 -173,0 -309,70 -411,208 -102,138 -153,325 -153,561zm1386 930l-450 0 33 -218c-78,99 -168,173 -270,222 -102,48 -219,73 -352,73 -259,0 -459,-82 -602,-246 -141,-165 -212,-397 -212,-698 0,-356 86,-643 259,-861 173,-218 401,-327 681,-327 133,0 256,28 369,83 114,55 219,139 316,253l40 -267 449 0 -261 1986z"/>
   <path id="3" class="fil0" d="M14358 3560l-759 -2106 467 0 308 951c17,53 31,110 43,170 12,61 21,125 26,190 17,-55 38,-110 63,-165 25,-56 55,-112 88,-168l569 -978 511 0 -1316 2106z"/>
   <path id="4" class="fil0" d="M16051 759c0,-73 26,-136 79,-189 52,-51 115,-77 191,-77 75,0 139,26 189,77 51,51 77,114 77,189 0,77 -26,141 -77,193 -50,52 -114,77 -189,77 -78,0 -143,-25 -194,-77 -50,-52 -76,-116 -76,-193zm-296 2681l260 -1986 452 0 -262 1986 -450 0z"/>
   <path class="fil1" d="M4392 1159l-454 1074 -165 391 -97 230c-23,54 2,116 56,138l0 0c53,23 115,-2 138,-56l97 -230 3 1 126 -299c23,-53 85,-78 138,-56l0 0c54,23 79,85 56,138l-126 299 3 1 -236 558c-22,53 3,115 56,138l0 0c53,22 116,-3 138,-56l236 -558 0 0 80 -190c23,-54 85,-79 139,-56l0 0c53,22 78,84 56,138l-81 191 5 2 -210 498c-23,54 2,116 56,139l0 0c53,22 115,-3 138,-56l211 -499 52 -123 1233 -2916 -1469 737 -774 389 595 33zm-2985 266c202,-491 1481,-579 1693,264 71,284 424,1945 424,1945 0,0 86,384 324,498 239,114 453,-95 453,-95 -298,475 -1538,590 -1753,-428 -101,-477 -240,-1448 -431,-1960 -107,-286 -375,-388 -710,-224zm240 2189l120 -281 165 -391 97 -231c23,-53 -2,-115 -56,-138l0 0c-53,-22 -115,3 -138,56l-97 231 -3 -1 -126 299c-23,53 -85,78 -138,56l0 0c-54,-23 -79,-85 -56,-139l126 -299 -3 -1 236 -557c22,-53 -3,-115 -56,-138l0 0c-53,-23 -116,3 -138,56l-236 557 0 0 -81 191c-22,53 -84,79 -138,56l0 0c-53,-23 -78,-85 -56,-138l81 -191 -6 -2 211 -499c23,-53 -2,-115 -56,-138l0 0c-53,-22 -115,3 -138,56l-211 499 -52 123 -898 2124 1469 -738 774 -388 -596 -34zm268 -1168l0 0c-54,-23 -79,-85 -56,-138l51 -122c23,-54 85,-79 138,-56l0 0c54,22 79,84 56,138l-51 122c-23,53 -85,78 -138,56zm-389 -435l0 0c-53,-23 -78,-85 -56,-138l125 -295c23,-54 85,-79 138,-56l0 0c54,22 79,84 56,138l-125 295c-22,53 -84,79 -138,56zm2264 1109l0 0c54,23 79,85 56,138l-51 122c-23,53 -85,79 -138,56l0 0c-54,-23 -79,-85 -56,-138l51 -122c23,-53 85,-78 138,-56zm389 435l0 0c53,22 78,84 56,138l-125 295c-23,53 -85,79 -138,56l0 0c-54,-23 -79,-85 -56,-138l125 -295c22,-54 84,-79 138,-56z"/>
   <path class="fil0" d="M6468 4220l163 0 -60 -133c-4,-9 -7,-18 -11,-29 -4,-11 -7,-24 -11,-37 -3,12 -7,24 -10,35 -4,11 -8,22 -11,31l-60 133zm263 230l-67 -150 -232 0 -67 150 -100 0 283 -608 283 608 -100 0z"/>
   <polygon id="1" class="fil0" points="6962,4450 6962,3865 7057,3865 7057,4450 "/>
   <path id="2" class="fil0" d="M12329 4450l-87 0 0 -49c-16,22 -34,38 -54,49 -21,10 -45,16 -71,16 -54,0 -96,-18 -127,-55 -31,-37 -46,-87 -46,-151 0,-60 16,-109 47,-146 32,-37 73,-56 123,-56 31,0 58,7 80,20 22,12 38,31 48,55l0 -62 87 0 0 379zm-85 -190c0,-40 -9,-70 -27,-92 -18,-22 -44,-33 -77,-33 -32,0 -58,12 -77,34 -19,23 -28,54 -28,94 0,40 9,71 27,93 18,22 44,33 77,33 31,0 56,-12 76,-36 19,-23 29,-55 29,-93z"/>
   <polygon id="3" class="fil0" points="12543,4450 12543,4147 12476,4147 12476,4071 12543,4071 12543,3928 12629,3928 12629,4071 12696,4071 12696,4147 12629,4147 12629,4450 "/>
   <path id="4" class="fil0" d="M12844 4450l0 -619 82 0 0 303c17,-27 38,-46 61,-58 24,-12 52,-18 86,-18 28,0 52,5 72,14 20,9 35,22 46,39 7,11 12,23 15,37 3,14 4,38 4,73l0 229 -87 0 0 -194c0,-50 -6,-83 -18,-100 -13,-16 -34,-24 -65,-24 -20,0 -38,4 -54,11 -16,8 -29,18 -38,32 -6,9 -11,20 -13,35 -3,14 -4,36 -4,68l0 172 -87 0z"/>
   <path id="5" class="fil0" d="M14156 4450l0 -379 82 0 0 63c17,-27 37,-46 61,-58 23,-12 52,-18 86,-18 28,0 52,5 72,14 20,9 35,22 46,39 7,11 12,23 15,37 3,14 4,38 4,73l0 229 -88 0 0 -194c0,-50 -6,-83 -18,-100 -12,-16 -33,-24 -64,-24 -20,0 -39,4 -54,11 -16,8 -29,18 -38,32 -6,9 -11,20 -13,35 -3,14 -4,36 -4,68l0 172 -87 0z"/>
   <path id="6" class="fil0" d="M14984 4260c0,-40 -9,-70 -27,-92 -19,-22 -44,-33 -77,-33 -33,0 -59,12 -77,34 -19,23 -29,54 -29,94 0,40 9,71 28,93 18,22 43,33 76,33 32,0 57,-12 77,-36 19,-23 29,-55 29,-93zm84 167c0,74 -14,126 -44,156 -30,31 -80,46 -150,46 -52,0 -94,-11 -125,-33 -31,-22 -47,-52 -47,-88l93 -1c1,17 9,29 23,38 13,8 33,12 58,12 37,0 64,-8 80,-24 16,-16 24,-43 25,-82l1 -50c-16,22 -34,38 -55,49 -20,10 -44,16 -71,16 -53,0 -95,-18 -126,-55 -31,-37 -46,-87 -46,-151 0,-60 15,-109 47,-146 31,-37 72,-56 123,-56 31,0 57,7 79,20 22,12 38,31 49,55l0 -62 86 0 0 356z"/>
   <path id="7" class="fil0" d="M15254 3908c0,-15 6,-28 17,-38 11,-11 23,-16 38,-16 16,0 29,5 39,15 10,10 15,23 15,39 0,15 -5,28 -15,39 -11,10 -24,16 -39,16 -15,0 -27,-6 -38,-17 -11,-10 -17,-23 -17,-38zm12 542l0 -379 87 0 0 379 -87 0z"/>
   <path id="8" class="fil0" d="M15551 4450l0 -379 81 0 0 63c17,-27 38,-46 61,-58 24,-12 52,-18 86,-18 28,0 52,5 72,14 20,9 35,22 47,39 6,11 11,23 14,37 3,14 4,38 4,73l0 229 -87 0 0 -194c0,-50 -6,-83 -18,-100 -12,-16 -34,-24 -65,-24 -20,0 -38,4 -54,11 -16,8 -29,18 -38,32 -6,9 -10,20 -13,35 -2,14 -4,36 -4,68l0 172 -86 0z"/>
   <path id="9" class="fil0" d="M16471 4274l-303 0c2,35 13,63 32,83 18,19 44,29 75,29 28,0 51,-5 70,-17 19,-12 35,-31 49,-57l73 41c-22,38 -48,66 -79,85 -32,19 -69,28 -111,28 -61,0 -109,-19 -145,-56 -36,-37 -54,-86 -54,-148 0,-59 18,-108 56,-146 37,-39 85,-58 143,-58 61,0 108,18 143,53 34,34 51,83 51,146l0 17zm-90 -59c-4,-27 -14,-47 -31,-62 -18,-14 -41,-21 -71,-21 -29,0 -52,7 -69,21 -17,14 -30,34 -36,62l207 0z"/>
   <path id="10" class="fil0" d="M7610 4110l24 0c53,0 88,-6 106,-17 17,-12 26,-32 26,-61 0,-31 -10,-53 -28,-66 -19,-13 -54,-19 -104,-19l-24 0 0 163zm-6 78l0 262 -89 0 0 -585 143 0c43,0 74,2 95,7 20,5 37,13 52,23 19,14 33,32 44,55 10,23 15,48 15,76 0,28 -5,53 -15,77 -11,23 -25,42 -44,55 -15,11 -32,18 -52,23 -21,4 -52,7 -95,7l-18 0 -36 0z"/>
   <path id="11" class="fil0" d="M8286 4262c0,-35 -12,-65 -34,-89 -23,-25 -51,-37 -83,-37 -33,0 -61,12 -83,37 -23,24 -34,54 -34,89 0,35 11,65 34,90 22,24 50,36 83,36 32,0 60,-12 82,-36 23,-25 35,-55 35,-90zm-326 -1c0,-27 5,-54 16,-78 10,-25 25,-47 45,-66 19,-19 42,-33 67,-44 26,-10 52,-15 80,-15 28,0 55,5 80,15 25,11 48,26 68,45 20,20 35,42 46,66 10,25 15,50 15,77 0,28 -5,55 -15,79 -10,24 -25,46 -45,65 -21,20 -44,35 -69,45 -26,11 -52,16 -80,16 -28,0 -54,-5 -79,-16 -26,-10 -48,-25 -68,-44 -20,-20 -35,-42 -46,-66 -10,-25 -15,-51 -15,-79z"/>
   <path id="12" class="fil0" d="M8906 4473l-88 -197c-7,-15 -12,-29 -16,-41 -5,-11 -8,-23 -12,-35 -6,18 -11,33 -16,45 -4,12 -8,22 -10,28l-90 200 -197 -402 93 0 85 183c3,8 7,18 10,32 4,13 6,28 9,44 0,-9 2,-19 5,-30 2,-10 8,-23 14,-38l93 -205 7 0 95 205c5,13 10,25 13,36 2,11 4,21 5,32 2,-14 5,-28 9,-40 4,-13 8,-25 13,-35l83 -184 92 0 -197 402z"/>
   <path id="13" class="fil0" d="M9596 4274l-303 0c2,35 13,63 32,83 18,19 44,29 75,29 28,0 51,-5 70,-17 19,-12 35,-31 49,-57l73 41c-22,38 -48,66 -79,85 -32,19 -69,28 -111,28 -61,0 -109,-19 -145,-56 -36,-37 -54,-86 -54,-148 0,-59 19,-108 56,-146 37,-39 85,-58 143,-58 61,0 109,18 143,53 34,34 51,83 51,146l0 17zm-90 -59c-4,-27 -14,-47 -31,-62 -18,-14 -41,-21 -71,-21 -29,0 -52,7 -69,21 -17,14 -29,34 -36,62l207 0z"/>
   <path id="14" class="fil0" d="M9847 4132c9,-25 21,-44 37,-56 15,-12 34,-18 57,-18 12,0 24,2 36,5 12,3 24,7 35,12l-31 74c-8,-5 -16,-9 -24,-12 -9,-2 -19,-3 -29,-3 -29,0 -50,11 -62,34 -13,23 -19,62 -19,116l0 166 -87 0 0 -379 87 0 0 61z"/>
   <path id="15" class="fil0" d="M10500 4274l-302 0c2,35 12,63 31,83 19,19 44,29 76,29 28,0 51,-5 70,-17 18,-12 35,-31 49,-57l72 41c-21,38 -47,66 -79,85 -31,19 -68,28 -110,28 -61,0 -109,-19 -145,-56 -36,-37 -54,-86 -54,-148 0,-59 18,-108 55,-146 38,-39 85,-58 144,-58 61,0 108,18 142,53 34,34 51,83 51,146l0 17zm-90 -59c-3,-27 -13,-47 -31,-62 -17,-14 -41,-21 -71,-21 -28,0 -51,7 -68,21 -18,14 -30,34 -37,62l207 0z"/>
   <path id="16" class="fil0" d="M10937 4260c0,-40 -9,-70 -27,-92 -18,-22 -44,-33 -77,-33 -33,0 -58,12 -77,34 -19,23 -28,54 -28,94 0,40 9,71 27,93 18,22 44,33 77,33 31,0 57,-12 76,-36 19,-23 29,-54 29,-93zm-2 -429l87 0 0 619 -87 0 0 -49c-16,22 -34,38 -54,49 -21,10 -45,16 -71,16 -54,0 -96,-18 -127,-55 -31,-37 -46,-87 -46,-151 0,-60 16,-109 47,-146 32,-37 73,-56 123,-56 31,0 58,7 80,20 22,12 38,31 48,55l0 -302z"/>
   <path id="17" class="fil0" d="M11564 4110l25 0c53,0 88,-6 105,-17 18,-12 27,-32 27,-61 0,-31 -10,-53 -28,-66 -19,-13 -54,-19 -104,-19l-25 0 0 163zm-5 78l0 262 -89 0 0 -585 143 0c43,0 74,2 95,7 20,5 37,13 52,23 19,14 33,32 43,55 11,23 16,48 16,76 0,28 -5,53 -16,77 -10,23 -24,42 -43,55 -15,11 -32,18 -52,23 -21,4 -52,7 -95,7l-18 0 -36 0z"/>
   <polygon id="18" class="fil0" points="13654,4450 13654,3865 13981,3865 13981,3946 13749,3946 13749,4093 13981,4093 13981,4176 13749,4176 13749,4365 13981,4365 13981,4450 "/>
  </g>
 </g>
</svg>
